<svg version="1.0" xmlns="http://www.w3.org/2000/svg" width="856" height="480" viewBox="0 0 642 360" fill="white">
  <path
    d="M0 180v180h642V0H0v180zM335.6 42.2c8.2 5.7 19.5 13.4 25.2 17.2l10.2 6.9v90.2l-4.3 2.4c-2.3 1.3-9.1 5.6-15.2 9.6-25.6 16.7-30.6 19.7-31.8 19.1-.6-.3-5.1-3.2-9.9-6.3-4.7-3.2-15.4-10.3-23.7-15.8l-15.1-10v-38.1l3.8-2.8c5.7-4.2 25.4-18 37.7-26.5 16.4-11.3 15.8-10.2 8.5-14.7l-6.2-3.8 2.8-2.3c1.6-1.3 3.4-2.3 3.9-2.3 1.4 0 23.5 14.8 23.5 15.8 0 .4-5.6 4.4-12.3 8.9-36.1 24.2-43.7 29.5-43.7 30.3 0 .9 6.4 5.4 26.2 18.4l5.9 3.8 18.4-12.3 18.4-12.4.1-7.3c0-5.6-.3-7.1-1.2-6.6-.7.4-5.9 3.9-11.6 7.6l-10.3 6.9-4.4-2.8c-2.4-1.5-4.4-3.1-4.5-3.5 0-.7 3.4-3.2 20.8-15.3l11.3-7.8-.3-8-.3-8.1-18.3-12.3L320.9 48l-18.4 12.2L284 72.5V92l-6.2 4.5c-3.4 2.5-6.5 4.5-6.8 4.5-.4 0-.7-7.6-.8-16.9l-.2-16.9 8.7-6.2c4.9-3.4 16.2-11.2 25.3-17.5 9.1-6.2 16.5-11.4 16.6-11.4.1-.1 6.8 4.5 15 10.1zm-96.4 167.9c3.7 1.9 5.8 4.1 5.8 6 0 1.6-.6 1.8-4.7 1.2-2.7-.3-5.3-1-6-1.5-2.1-1.7-11.3-1.1-13.4.8-2.4 2.2-2.4 5.6 0 7.8 2.3 2.1 13.2 1.9 13.9-.3.3-1-.4-1.2-3.7-.6-3.9.6-4.1.6-4.1-1.9V219h19v13h-3c-1.8 0-3.3-.6-3.6-1.5-.5-1.3-1-1.2-3.7.1-4.1 2.2-13.6 2.9-18 1.5-2-.7-4.8-2.6-6.3-4.4-2.2-2.6-2.5-3.8-2.1-7.5.6-5.4 3.6-8.7 9.6-10.6 5.2-1.7 16.6-1.4 20.3.5zm34.7-1c3.6.7 5.8 1.9 7.6 4.1 1.4 1.6 2.3 3.4 1.9 3.9-.9 1.5-8.3 1-11-.8-3.9-2.5-11.3-2.2-13.6.6-2.4 3-2.3 3.7.8 6.8 2.2 2.2 3.2 2.5 7 2 2.5-.2 5.3-1.2 6.3-2.1 1.9-1.8 9.6-2.2 10.6-.6 1.1 1.7-2.5 5.8-6.6 7.4-4.7 1.9-15.5 2.1-21.1.4-2.2-.6-4.8-2.3-5.9-3.6-2.5-3.2-2.6-11.1-.1-14.1 3.6-4.5 13.9-6.2 24.1-4zm41.9 1.3c3 1.5 5.2 4.3 5.2 6.4 0 1.3-7.4.4-12.7-1.5-7.2-2.6-13.3-.4-13.3 4.8 0 4.8 6.3 7.3 13.8 5.3 3.6-1 2.5-2.4-1.8-2.4-3.3 0-4-.3-4-2 0-1.9.7-2 9-2 5 0 9 .3 9.1.7 0 .5.1 3.3.2 6.3l.1 5.5-3.2.3c-2.4.2-3.2-.1-3.2-1.2 0-1.9-.8-2-4-.1-3.3 1.9-14 1.9-18.8 0-10.2-4.1-9.2-18.3 1.6-21.4 5.1-1.4 18.2-.7 22 1.3zM344 217v8h3.9c2.1 0 5.9.3 8.5.6 4.3.6 4.6.9 4.6 3.5v2.9h-27v-23h10v8zm56.2-2.6c-.3 3.4-.2 3.8 1.5 3.1 5.1-2.2 13.5-1.1 16.8 2.1 2.1 2.1 1.9 7.7-.3 10.4-2.2 2.7-11.5 4-15.1 2-1.6-.8-2.6-.8-3.5-.1-.7.6-2.9.8-5 .4l-3.7-.6.3-10.9.3-10.9 4.5.3 4.5.3-.3 3.9zm-14.5 3.1c1.8 1.2 2.3 2.5 2.3 5.5 0 2.1.4 4.1.9 4.4.5.3.7 1.5.4 2.6-.4 1.6-1.4 2-4.8 2-2.4 0-4.5-.4-4.7-1-.2-.6-2-.4-4.6.5-6.3 2.2-13.2-.2-13.2-4.5 0-2.9 2.8-4.3 10.4-5.6 5.2-.8 6.6-1.3 5.2-1.9-1.1-.5-3.8-.3-6.3.3-2.4.7-5.2 1.2-6.3 1.2-2.2 0-2.7-2.4-.8-3.6 4.3-2.7 17.3-2.6 21.5.1zm45.1 14.1.3 3-4.6-.5c-2.5-.4-4.6-.9-4.5-1.4v-2.8c0-1.8.5-2 4.3-1.7 3.9.3 4.2.5 4.5 3.4zm-171.1 10.6c3.1 2.9 3.1 8.1.1 10.2-4.8 3.4-10.4 1.4-11.4-4-1.3-6.8 6.2-11 11.3-6.2zm11.2 1.8 1.8 4 1.2-4c1.1-3.6 3.3-5.2 4.4-3.3.3.5.8 3.6 1.2 7 .5 4.4.4 6.3-.4 6.3-1.2 0-1.5-.6-2.6-5.5l-.7-3-1.2 3.8c-1.3 4.6-2.8 4.9-4 .8-1-3.6-2.6-4.1-2.6-.9 0 2.7-1.6 5.5-2.6 4.6-.3-.4-.3-3.7.1-7.3.8-7.7 2.7-8.6 5.4-2.5zm14.9 3.3c.2 5.5 0 6.7-1.3 6.7-1.2 0-1.5-1.4-1.5-7.1 0-5.2.3-7 1.3-6.7.7.3 1.3 2.9 1.5 7.1zm15.2-.3c0 8.4-.9 8.8-6.2 2.8l-3.8-4.3v4.2c0 4.3-1.3 5.7-2.4 2.7-.3-.9-.6-3.8-.6-6.5 0-4.2.3-4.9 1.9-4.9 1.1 0 2.9 1.3 4.1 3 2.8 3.9 4 3.8 4-.5 0-2.4.5-3.5 1.5-3.5 1.2 0 1.5 1.4 1.5 7zm13.3-5.2c2.1 2.3 1.1 3.5-1.5 2.1-1-.6-2.7-.7-3.7-.4-4.4 1.4-3 7.5 1.7 7.5 2.6-.1 2.6-.1.8-1.5-2.5-1.9-.9-3.8 2.5-3.3 5.3.7 1.7 7.8-3.9 7.8-3.8 0-6-1.9-6.8-5.5-1.2-6.4 6.8-11.3 10.9-6.7zm19.7-.3c0 .8-.9 1.5-2 1.5-2.8 0-2.5 1.8.5 3.2 5 2.3 1.3 9.8-3.9 7.9-2.7-1.1-2.3-2.5.9-2.9 3.2-.4 3.2-2 0-3.2-2.7-1-3.4-4.7-1.3-6.8 1.7-1.7 5.8-1.5 5.8.3zm14.7 0c6.6 4.7.8 15-7 12.3-5.1-1.8-6.2-7.4-2.2-11.3 2.7-2.8 6.1-3.2 9.2-1zm16.7.6c5.9 4.6 1.4 13-6.4 11.9-5-.7-6.8-8.3-2.8-12 2.8-2.6 5.8-2.6 9.2.1zm-119.4.4c0 1-1 1.5-3.4 1.5-3.1 0-4.6 1.3-4.6 4 0 2 3.2 4 5.6 3.4 1.7-.4 2.4-.2 2.4.9 0 1.9-4.5 3-7 1.7-4.3-2.3-5-9.7-1.2-12 2.7-1.5 8.2-1.2 8.2.5zm130.9 2.2 3 3.8.1-3.8c0-2.6.4-3.7 1.5-3.7 1.2 0 1.5 1.4 1.5 6.5 0 7.8-1 8.2-6.2 2.2l-3.7-4.2-.1 4.2c0 2.4-.4 4.3-1 4.3s-1-2.8-1-6.5c0-7.8 1.3-8.4 5.9-2.8zm12.9 9.6c.2 1.2-.3 1.7-1.7 1.7-1.2 0-2.1-.6-2.1-1.3 0-3.1 3.2-3.4 3.8-.4zm7.7.7c0 .8-.8 1.6-1.7 1.8-1.3.2-1.8-.3-1.8-1.8s.5-2 1.8-1.8c.9.2 1.7 1 1.7 1.8zm7.3.3c.2 1.2-.3 1.7-1.7 1.7-1.2 0-2.1-.6-2.1-1.3 0-3.1 3.2-3.4 3.8-.4z" />
  <path
    d="M284 140.7v7.9l6.3 4.1c3.4 2.3 11.6 7.8 18.1 12.3 6.6 4.4 12.4 7.9 13 7.8.6-.2 9.1-5.6 18.9-12.1L358 149v-16l-5.7 3.7c-11.1 7-26.8 17.6-28.9 19.4-2 1.9-2.1 1.9-6.4-1.2-4.2-3.1-29.3-19.9-31.7-21.3-1-.5-1.3 1.1-1.3 7.1zM402.3 221c-4.6 1.8-2.2 7 3.2 7 5 0 7.1-3.3 3.9-6.4-1.7-1.8-3.8-1.9-7.1-.6zM374.1 224.9c-3.2.9-4 3.1-1.1 3.1 2.6 0 6-1.7 6-3 0-1.1-1.3-1.1-4.9-.1zM252 245c-1.5 2.8.4 6 3.6 6 2.8 0 3.9-1.9 3-5.5-.8-3.1-5-3.5-6.6-.5zM341.6 244.6c-.9.8-1.6 2.2-1.6 2.9 0 1.3 2.6 4.5 3.6 4.5 2.2 0 4.4-2.5 4.4-4.9 0-4-3.6-5.4-6.4-2.5zM358.2 244.2c-1.8 1.8-1.4 5.6.7 6.8 2.6 1.4 5 .3 5.7-2.6 1.1-4.2-3.4-7.2-6.4-4.2z" />
</svg>